<svg xmlns="http://www.w3.org/2000/svg" height="512pt" version="1.1" viewBox="-48 0 512 512.00075" width="512pt">
<g id="surface1">
<path d="M 213.667969 130.355469 C 210.582031 127.261719 205.417969 127.261719 202.335938 130.355469 C 196.359375 136.347656 56 278.109375 56 360 C 56 443.8125 124.1875 512 208 512 C 291.8125 512 360 443.8125 360 360 C 360 278.109375 219.640625 136.347656 213.667969 130.355469 Z M 213.667969 130.355469 " style=" stroke:none;fill-rule:nonzero;fill:rgb(67.843137%,92.156863%,95.294118%);fill-opacity:1;" />
<path d="M 240 496 C 156.1875 496 88 427.8125 88 344 C 88 278.71875 177.1875 175.398438 216.402344 133.128906 C 214.988281 131.683594 214.050781 130.738281 213.667969 130.355469 C 210.585938 127.261719 205.417969 127.261719 202.335938 130.355469 C 196.359375 136.347656 56 278.109375 56 360 C 56 443.8125 124.1875 512 208 512 C 238.726562 512 267.34375 502.828125 291.28125 487.089844 C 275.253906 492.851562 257.988281 496 240 496 Z M 240 496 " style=" stroke:none;fill-rule:nonzero;fill:rgb(59.607843%,89.803922%,94.117647%);fill-opacity:1;" />
<path d="M 382.195312 37.683594 C 366.058594 17.933594 350.171875 2.828125 349.503906 2.195312 C 346.417969 -0.730469 341.582031 -0.730469 338.496094 2.195312 C 337.828125 2.828125 321.941406 17.933594 305.804688 37.683594 C 283.375 65.136719 272 87.449219 272 104 C 272 143.703125 304.300781 176 344 176 C 383.703125 176 416 143.703125 416 104 C 416 87.449219 404.628906 65.136719 382.195312 37.683594 Z M 382.195312 37.683594 " style=" stroke:none;fill-rule:nonzero;fill:rgb(59.607843%,89.803922%,94.117647%);fill-opacity:1;" />
<path d="M 368 160 C 328.300781 160 296 127.703125 296 88 C 296 71.449219 307.375 49.136719 329.804688 21.683594 C 336.191406 13.867188 342.535156 6.785156 347.914062 1.03125 C 344.925781 -0.648438 341.09375 -0.269531 338.496094 2.195312 C 337.828125 2.828125 321.941406 17.933594 305.804688 37.683594 C 283.375 65.136719 272 87.449219 272 104 C 272 143.703125 304.300781 176 344 176 C 363.941406 176 382.011719 167.847656 395.066406 154.703125 C 386.703125 158.109375 377.570312 160 368 160 Z M 368 160 " style=" stroke:none;fill-rule:nonzero;fill:rgb(51.764706%,87.843137%,92.941176%);fill-opacity:1;" />
<path d="M 77.503906 2.195312 C 74.417969 -0.730469 69.582031 -0.730469 66.496094 2.195312 C 65.828125 2.828125 49.941406 17.9375 33.804688 37.683594 C 11.375 65.136719 0 87.449219 0 104 C 0 143.703125 32.300781 176 72 176 C 111.703125 176 144 143.703125 144 104 C 144 87.449219 132.625 65.136719 110.195312 37.683594 C 94.058594 17.933594 78.171875 2.828125 77.503906 2.195312 Z M 77.503906 2.195312 " style=" stroke:none;fill-rule:nonzero;fill:rgb(59.607843%,89.803922%,94.117647%);fill-opacity:1;" />
<path d="M 96 160 C 56.300781 160 24 127.703125 24 88 C 24 71.449219 35.375 49.136719 57.804688 21.683594 C 64.191406 13.867188 70.535156 6.785156 75.914062 1.03125 C 72.925781 -0.648438 69.09375 -0.269531 66.496094 2.195312 C 65.828125 2.828125 49.941406 17.933594 33.804688 37.683594 C 11.375 65.136719 0 87.449219 0 104 C 0 143.703125 32.300781 176 72 176 C 91.941406 176 110.011719 167.847656 123.066406 154.703125 C 114.703125 158.109375 105.570312 160 96 160 Z M 96 160 " style=" stroke:none;fill-rule:nonzero;fill:rgb(51.764706%,87.843137%,92.941176%);fill-opacity:1;" />
<path d="M 160 408 C 157.953125 408 155.90625 407.21875 154.34375 405.65625 C 151.21875 402.535156 151.21875 397.46875 154.34375 394.34375 L 250.34375 298.34375 C 253.46875 295.222656 258.53125 295.222656 261.65625 298.34375 C 264.78125 301.46875 264.78125 306.535156 261.65625 309.65625 L 165.65625 405.65625 C 164.09375 407.21875 162.046875 408 160 408 Z M 160 408 " style=" stroke:none;fill-rule:nonzero;fill:rgb(91.764706%,98.039216%,98.823529%);fill-opacity:1;" />
<path d="M 256 384 C 256 392.835938 248.835938 400 240 400 C 231.164062 400 224 392.835938 224 384 C 224 375.164062 231.164062 368 240 368 C 248.835938 368 256 375.164062 256 384 Z M 256 384 " style=" stroke:none;fill-rule:nonzero;fill:rgb(91.764706%,98.039216%,98.823529%);fill-opacity:1;" />
<path d="M 192 320 C 192 328.835938 184.835938 336 176 336 C 167.164062 336 160 328.835938 160 320 C 160 311.164062 167.164062 304 176 304 C 184.835938 304 192 311.164062 192 320 Z M 192 320 " style=" stroke:none;fill-rule:nonzero;fill:rgb(91.764706%,98.039216%,98.823529%);fill-opacity:1;" />
</g>
</svg>