<svg height="512pt" viewBox="-79 0 512 512" width="512pt" xmlns="http://www.w3.org/2000/svg"><path d="m187.949219 296.042969v-227.078125c0-38.089844-30.875-68.964844-68.964844-68.964844-38.085937 0-68.960937 30.875-68.960937 68.964844v227.078125c-30.277344 21.570312-50.023438 56.964843-50.023438 96.972656 0 65.710937 53.273438 118.984375 118.984375 118.984375 65.714844 0 118.988281-53.273438 118.988281-118.984375 0-40.007813-19.746094-75.402344-50.023437-96.972656zm0 0" fill="#d3ddea"/><path d="m196.171875 393.015625c0 42.558594-34.617187 77.1875-77.1875 77.1875-42.558594 0-77.1875-34.628906-77.1875-77.1875 0-24.921875 12.144531-48.441406 32.476563-62.933594l17.542968-12.496093v-248.625c0-14.984376 12.183594-27.167969 27.167969-27.167969s27.167969 12.183593 27.167969 27.167969v248.625l17.542968 12.496093c20.34375 14.492188 32.476563 38.011719 32.476563 62.933594zm0 0" fill="#ff7694"/><path d="m118.984375 470.203125c-42.558594 0-77.1875-34.628906-77.1875-77.1875 0-24.921875 12.140625-48.441406 32.472656-62.933594l17.546875-12.496093v-248.625c0-14.984376 12.183594-27.167969 27.167969-27.167969-8.550781 0-10.285156 12.183593-10.285156 27.167969v248.625s-33.769531 26.464843-33.769531 75.429687c0 42.558594 19.769531 77.1875 44.054687 77.1875zm0 0" fill="#e53737"/><path d="m146.152344 68.960938v90.773437h-54.335938v-90.773437c0-14.984376 12.183594-27.167969 27.167969-27.167969s27.167969 12.183593 27.167969 27.167969zm0 0" fill="#fff"/><g fill="#84abc1"><path d="m91.816406 271.652344h54.335938v15.671875h-54.335938zm0 0"/><path d="m91.816406 211.773438h54.335938v15.671874h-54.335938zm0 0"/><path d="m91.816406 151.898438h54.335938v15.671874h-54.335938zm0 0"/><path d="m91.816406 92.019531h54.335938v15.675781h-54.335938zm0 0"/><path d="m344.183594 167.425781c-5.46875 0-8.453125 2.097657-8.867188 6.21875-1.179687 9.238281-2.957031 23.191407-24.71875 23.191407-17.832031 0-26.503906-9.058594-26.503906-27.695313v-59.816406c0-18.375 8.71875-27.695313 25.910156-27.695313 19.996094 0 24.800782 12.15625 25.3125 22.359375.222656 4.035157 3.371094 6.257813 8.867188 6.257813 5.617187 0 8.867187-1.582032 8.867187-9.664063 0-20.667969-17.867187-35.101562-43.445312-35.101562-27.484375 0-43.25 15.980469-43.25 43.84375v59.816406c0 14.976563 4.28125 26.382813 12.71875 33.902344 7.304687 6.503906 17.792969 9.941406 30.332031 9.941406 25.695312 0 43.644531-14.675781 43.644531-35.695313 0-8.210937-3.394531-9.863281-8.867187-9.863281zm0 0"/><path d="m277.4375 43.121094c0-14.113282-11.484375-25.597656-25.601562-25.597656-14.117188 0-25.601563 11.484374-25.601563 25.597656 0 14.117187 11.484375 25.601562 25.601563 25.601562 14.117187 0 25.601562-11.484375 25.601562-25.601562zm-25.601562 9.925781c-5.472657 0-9.925782-4.453125-9.925782-9.925781s4.453125-9.925782 9.925782-9.925782c5.472656 0 9.925781 4.453126 9.925781 9.925782s-4.453125 9.925781-9.925781 9.925781zm0 0"/></g></svg>