<?xml version="1.0" encoding="iso-8859-1"?>
<!-- Generator: Adobe Illustrator 19.0.0, SVG Export Plug-In . SVG Version: 6.00 Build 0)  -->
<svg version="1.1" id="Layer_1" xmlns="http://www.w3.org/2000/svg" xmlns:xlink="http://www.w3.org/1999/xlink" x="0px" y="0px"
	 viewBox="0 0 512 512" style="enable-background:new 0 0 512 512;" xml:space="preserve">
<path style="fill:#5CC4E0;" d="M262.689,3.545C261.185,1.328,258.68,0,256,0s-5.186,1.328-6.69,3.545
	c-6.747,9.946-165.234,244.618-165.234,336.531C84.076,434.874,161.2,512,256,512s171.924-77.126,171.924-171.924
	C427.924,248.164,269.437,13.491,262.689,3.545z"/>
<path style="fill:#439EE8;" d="M299.655,443.554c-94.8,0-171.924-77.126-171.924-171.924c0-59.849,67.197-180.224,115.944-259.675
	C214.261,56.205,84.076,256.773,84.076,340.076C84.076,434.874,161.2,512,256,512c75.418,0,139.646-48.815,162.758-116.506
	C387.836,425.238,345.846,443.554,299.655,443.554z"/>
<path style="fill:#FFFFFF;" d="M239.293,232.825c-4.465,0-8.084,3.618-8.084,8.084v30.72h-44.194v-30.72
	c0-4.466-3.62-8.084-8.084-8.084c-4.465,0-8.084,3.618-8.084,8.084v77.608c0,4.466,3.62,8.084,8.084,8.084
	c4.465,0,8.084-3.618,8.084-8.084v-30.72h44.194v30.72c0,4.466,3.62,8.084,8.084,8.084c4.465,0,8.084-3.618,8.084-8.084v-77.608
	C247.377,236.444,243.757,232.825,239.293,232.825z"/>
<path style="fill:#BEE7F3;" d="M331.992,323.368c-25.854,0-46.888-21.034-46.888-46.888s21.034-46.888,46.888-46.888
	c25.854,0,46.888,21.034,46.888,46.888S357.846,323.368,331.992,323.368z"/>
<path style="fill:#FFFFFF;" d="M299.655,391.276h-43.116c-3.357,0-6.364-2.074-7.556-5.212c-1.193-3.137-0.323-6.685,2.185-8.915
	l36.005-32.004c-0.691-5.583-5.465-9.92-11.232-9.92c-6.241,0-11.318,5.077-11.318,11.318c0,4.466-3.62,8.084-8.084,8.084
	c-4.465,0-8.084-3.618-8.084-8.084c0-15.155,12.33-27.486,27.486-27.486c15.155,0,27.486,12.331,27.486,27.486v2.156
	c0,2.31-0.987,4.509-2.713,6.042l-22.912,20.367h21.852c4.465,0,8.084,3.618,8.084,8.084S304.119,391.276,299.655,391.276z"/>
<circle style="fill:#BEE7F3;" cx="298.038" cy="179.469" r="28.025"/>
<g>
	<path style="fill:#439EE8;" d="M142.808,69.055c-5.488-0.73-19.319-3.786-29.195-16.375c-7.016-8.951-8.701-18.661-9.08-23.651
		c-0.321-4.215-3.835-7.471-8.062-7.471c-4.226,0-7.74,3.256-8.062,7.471c-0.38,4.992-2.065,14.701-9.079,23.65
		c-9.877,12.592-23.708,15.648-29.196,16.376c-4.017,0.535-7.019,3.96-7.019,8.014c0,4.054,3.002,7.48,7.019,8.014
		c5.489,0.73,19.32,3.786,29.195,16.375c7.016,8.951,8.701,18.661,9.08,23.651c0.321,4.215,3.834,7.471,8.062,7.471
		s7.74-3.256,8.062-7.471c0.38-4.992,2.065-14.701,9.079-23.65c9.877-12.592,23.708-15.648,29.196-16.376
		c4.017-0.535,7.019-3.96,7.019-8.014C149.827,73.016,146.825,69.59,142.808,69.055z"/>
	<path style="fill:#439EE8;" d="M461.865,69.055c-5.489-0.73-19.32-3.786-29.195-16.375c-7.016-8.951-8.701-18.661-9.08-23.651
		c-0.321-4.215-3.835-7.471-8.062-7.471s-7.74,3.256-8.062,7.471c-0.38,4.992-2.065,14.701-9.08,23.651
		c-9.876,12.591-23.707,15.647-29.195,16.375c-4.017,0.535-7.019,3.96-7.019,8.014c0,4.054,3.002,7.48,7.019,8.014
		c5.489,0.73,19.32,3.786,29.195,16.375c7.016,8.951,8.701,18.661,9.08,23.651c0.321,4.215,3.834,7.471,8.062,7.471
		c4.227,0,7.74-3.256,8.062-7.471c0.38-4.992,2.065-14.701,9.079-23.65c9.877-12.592,23.708-15.648,29.196-16.376
		c4.017-0.535,7.019-3.96,7.019-8.014C468.884,73.016,465.882,69.59,461.865,69.055z"/>
</g>
<g>
</g>
<g>
</g>
<g>
</g>
<g>
</g>
<g>
</g>
<g>
</g>
<g>
</g>
<g>
</g>
<g>
</g>
<g>
</g>
<g>
</g>
<g>
</g>
<g>
</g>
<g>
</g>
<g>
</g>
</svg>
